PathFileType	4	(X/Y/Z)	pose_F01_0-78.trc
DataRate	CameraRate	NumFrames	NumMarkers	Units	OrigDataRate	OrigDataStartFrame	OrigNumFrames
30	30	11	21	m	30	65	78
Frame#	Time	CHip			RHip			RKnee			RAnkle			RBigToe			RSmallToe			RHeel			LHip			LKnee			LAnkle			LBigToe			LSmallToe			LHeel			Neck			Nose			RShoulder			RElbow			RWrist			LShoulder			LElbow			LWrist			
		X1	Y1	Z1	X2	Y2	Z2	X3	Y3	Z3	X4	Y4	Z4	X5	Y5	Z5	X6	Y6	Z6	X7	Y7	Z7	X8	Y8	Z8	X9	Y9	Z9	X10	Y10	Z10	X11	Y11	Z11	X12	Y12	Z12	X13	Y13	Z13	X14	Y14	Z14	X15	Y15	Z15	X16	Y16	Z16	X17	Y17	Z17	X18	Y18	Z18	X19	Y19	Z19	X20	Y20	Z20	X21	Y21	Z21	
65	2.1666666666666665	-0.23471642702560075	1.8751201341301027	-0.4007267150715753	-0.2447468376153808	1.8733716224679202	-0.33400655998232137	-0.26545656451491784	1.7168481557015087	-0.4477177870666516													-0.21839601482271545	1.8766877759194664	-0.46001072627218176	-0.21309569446019846	1.741138595796326	-0.4447210714017635	-0.21726670423821437	1.5948767328452063	-0.5504232376081666	-0.22229319359799804	1.557864243572134	-0.5860440625292525	-0.197950036677793	1.5906645051957333	-0.5224996444062668	-0.21842513677310688	1.5776849672395106	-0.5288154641457818	-0.23064303646879022	2.033595501054819	-0.3998906399143955	-0.2393242064450365	2.1096711921305844	-0.4640716443797369	-0.2510104893237204	2.031721677729372	-0.313940270196708	-0.25535210842393774	1.943766482874197	-0.27356622563869964	-0.2662446395435605	1.8659934401752587	-0.23713380539951134	-0.21242762706954973	2.037862551885037	-0.48552855653280175	-0.20626375509394804	1.9603528311355518	-0.5019298303135787	-0.19978475605818838	1.8872540335954848	-0.5159960932706701
66	2.2	-0.23649662115228504	1.8763248174394143	-0.3988341204416505	-0.2465871700971915	1.8736040156088098	-0.3318675859428443	-0.26545656451491784	1.7168481557015087	-0.4477177870666516													-0.22124596650234304	1.878656263512473	-0.46119459624988113	-0.2128363021531342	1.7427304500532446	-0.4369145579397449	-0.21726670423821437	1.5948767328452063	-0.5504232376081666	-0.22229319359799804	1.557864243572134	-0.5860440625292525	-0.197950036677793	1.5906645051957333	-0.5224996444062668	-0.21842513677310688	1.5776849672395106	-0.5288154641457818	-0.23248448488066198	2.0335496091444814	-0.3978543190237572	-0.2393650968819518	2.108353092384939	-0.4634490062570822	-0.24994661173792332	2.0316427633981395	-0.31077585500819876	-0.2581679368726172	1.947878459313509	-0.2611543834315255	-0.2697505122141563	1.8729340534962122	-0.22836179697056383	-0.2134148694550012	2.0380854399627757	-0.48853005420174495	-0.20594829408543816	1.9621922133702188	-0.5041351676216727	-0.1986199604386122	1.8912210125085138	-0.521775184002563
67	2.2333333333333334	-0.2383836894786163	1.873885458909642	-0.3962623913283745	-0.24942665762314406	1.8721509343677711	-0.3328346010434608	-0.26545656451491784	1.7168481557015087	-0.4477177870666516													-0.22213064420523382	1.8761833328665751	-0.4554733509588103	-0.21257690984606994	1.7443223043101632	-0.42910804447772627	-0.21726670423821437	1.5948767328452063	-0.5504232376081666	-0.22229319359799804	1.557864243572134	-0.5860440625292525	-0.197950036677793	1.5906645051957333	-0.5224996444062668	-0.21842513677310688	1.5776849672395106	-0.5288154641457818	-0.23245530783422988	2.033467881629323	-0.3977524804696272	-0.23937383697349807	2.108265895032214	-0.46343866798429784	-0.2498014728345737	2.030382713011012	-0.3101531400707196	-0.2587075552188263	1.9467491728503636	-0.25526403319889934	-0.2725101451814128	1.873463903272538	-0.229595523249239	-0.21249758779665612	2.0365618469461166	-0.48499053574943873	-0.20563283307692826	1.964031595604886	-0.5063405049297666	-0.19745516481903602	1.8951879914215426	-0.5275542747344558
68	2.2666666666666666	-0.23649525433722718	1.8768868139884831	-0.3987600170408284	-0.2475653395739289	1.8726811010748985	-0.33495231535680126	-0.26545656451491784	1.7168481557015087	-0.4477177870666516													-0.2202967794749206	1.8781381993664	-0.4579114090163744	-0.21231751753900568	1.7459141585670819	-0.42130153101570766	-0.21726670423821437	1.5948767328452063	-0.5504232376081666	-0.22229319359799804	1.557864243572134	-0.5860440625292525	-0.197950036677793	1.5906645051957333	-0.5224996444062668	-0.21842513677310688	1.5776849672395106	-0.5288154641457818	-0.23253606331114682	2.03341257740732	-0.3977291144151042	-0.23943054313076437	2.1057916171091287	-0.46298970152806246	-0.2516708931687751	2.030250437933749	-0.30812962629249346	-0.25992662586358195	1.9479801983921405	-0.25892633583990965	-0.2767645654959552	1.87575518288943	-0.23437632077017584	-0.21262869117343752	2.0365944446204494	-0.4855493399480156	-0.20584597807194985	1.9635362220377466	-0.5067309181472238	-0.19732413028236354	1.8984628370134062	-0.5258244008214614
69	2.3	-0.23654914143070285	1.874140267759964	-0.3984866363513821	-0.24755565114447461	1.8728993000327927	-0.3350512629502799	-0.26545656451491784	1.7168481557015087	-0.4477177870666516													-0.22132779442125888	1.8762100899313283	-0.4607475325167539	-0.21205812523194142	1.7475060128240005	-0.4134950175536891	-0.21726670423821437	1.5948767328452063	-0.5504232376081666	-0.22229319359799804	1.557864243572134	-0.5860440625292525	-0.197950036677793	1.5906645051957333	-0.5224996444062668	-0.21842513677310688	1.5776849672395106	-0.5288154641457818	-0.23258557551509665	2.0323163575867573	-0.39774448851278515	-0.24128446600796194	2.1044367998833526	-0.4602268961144182	-0.25169361364399656	2.0292487986330463	-0.3080503525304526	-0.2610847781895362	1.9481761142015614	-0.2623376001971671	-0.27633641785602886	1.8750307049663482	-0.239995465483998	-0.21351125308829877	2.035454568663441	-0.48803521007152767	-0.2067288336986125	1.9625906753123108	-0.5094574251574282	-0.20324304389957884	1.8955806323810713	-0.5272261057540738
70	2.3333333333333335	-0.23644852189054133	1.8749589210751534	-0.3986073695378945	-0.24841077629207142	1.8726387587451048	-0.3382552527938879	-0.26545656451491784	1.7168481557015087	-0.4477177870666516													-0.22299166332481385	1.8778746990333222	-0.4588395162039252	-0.21179873292487716	1.7490978670809192	-0.4056885040916705	-0.21726670423821437	1.5948767328452063	-0.5504232376081666	-0.22229319359799804	1.557864243572134	-0.5860440625292525	-0.197950036677793	1.5906645051957333	-0.5224996444062668	-0.21842513677310688	1.5776849672395106	-0.5288154641457818	-0.23255741072975955	2.0323184845934263	-0.39771862002541336	-0.24139055927320227	2.1019894935845	-0.45985594358700166	-0.2505415812297828	2.0301260497584126	-0.3049531577178374	-0.2615164728187661	1.9458158084793309	-0.27057550627219495	-0.27517679258462446	1.8743471899244502	-0.2509296412708208	-0.21260078247482145	2.0353453082358253	-0.4850362916086196	-0.20758125325975005	1.962116007683874	-0.5122879767064532	-0.20285331591865294	1.8931625699421102	-0.5260396677506638
71	2.3666666666666667	-0.23671754344968066	1.8725592075331492	-0.3984705149250563	-0.2500153579753278	1.8697767066457398	-0.3414344125125244	-0.26545656451491784	1.7168481557015087	-0.4477177870666516													-0.2214527361278017	1.8751851169699132	-0.4607449162806165	-0.2115393406178129	1.7506897213378378	-0.3978819906296519	-0.21726670423821437	1.5948767328452063	-0.5504232376081666	-0.22229319359799804	1.557864243572134	-0.5860440625292525	-0.197950036677793	1.5906645051957333	-0.5224996444062668	-0.21842513677310688	1.5776849672395106	-0.5288154641457818	-0.23259004216258683	2.0322964588359653	-0.3976717750218968	-0.24143042976069132	2.10189196671485	-0.45980748044377084	-0.2506692135253669	2.0291580465330155	-0.30489430193361117	-0.2564934519444921	1.943882425021849	-0.2770322678187757	-0.27202729762847805	1.8684551838446946	-0.26872796406382626	-0.2126215357071341	2.0353188218802476	-0.4850728627992795	-0.20784598980772095	1.959581211011545	-0.512708871080141	-0.2063472591106037	1.895704546488542	-0.5285457558435349
72	2.4	-0.23765246447530838	1.8720932395751575	-0.40159781158855223	-0.24823120667208975	1.8690385168336325	-0.3436404574084645	-0.26545656451491784	1.7168481557015087	-0.4477177870666516													-0.22129096035170434	1.876222722529666	-0.46091767212088364	-0.21127994831074864	1.7522815755947565	-0.3900754771676333	-0.21726670423821437	1.5948767328452063	-0.5504232376081666	-0.22229319359799804	1.557864243572134	-0.5860440625292525	-0.197950036677793	1.5906645051957333	-0.5224996444062668	-0.21842513677310688	1.5776849672395106	-0.5288154641457818	-0.23257577563607373	2.0310195671111035	-0.39738020215787223	-0.24141255783013413	2.1006708791385087	-0.4591565703858219	-0.251765643574605	2.0291387753328256	-0.3080884809278114	-0.25586835366915855	1.9428012904802268	-0.2823804993966622	-0.2658950610357097	1.8698364135261576	-0.28662756370066417	-0.21351297764734073	2.0355147516021557	-0.48823881292809373	-0.20871113128511393	1.960499958387249	-0.5155337374174245	-0.20694109814870992	1.8917832154669538	-0.5300994293480062
73	2.433333333333333	-0.23785589758039966	1.8710596013668106	-0.40163891184094425	-0.24941859266703642	1.867819842112052	-0.3468281239176745	-0.26545656451491784	1.7168481557015087	-0.4477177870666516													-0.22342811443592886	1.8752644107143592	-0.46732600154966936	-0.21102055600368438	1.7538734298516752	-0.3822689637056147	-0.21726670423821437	1.5948767328452063	-0.5504232376081666	-0.22229319359799804	1.557864243572134	-0.5860440625292525	-0.197950036677793	1.5906645051957333	-0.5224996444062668	-0.21842513677310688	1.5776849672395106	-0.5288154641457818	-0.23265053030362065	2.032327965725596	-0.3978549494364335	-0.2414226891592919	2.100688507272125	-0.4592503783009932	-0.2516819233641874	2.0302246009012275	-0.3080676215386341	-0.2541634978175162	1.9428641321812115	-0.2847371145165729	-0.2658382589991968	1.8682927844531816	-0.2954176229899415	-0.21358033830380274	2.035363157067267	-0.48817909957907424	-0.2077735355382731	1.961382090478277	-0.512727118312837	-0.205971585434394	1.891023651720041	-0.5268775847978157
74	2.466666666666667	-0.2375936399079697	1.8713554917680826	-0.4013940581795529	-0.24917534810660472	1.868352059236524	-0.3465140472875267	-0.26545656451491784	1.7168481557015087	-0.4477177870666516													-0.2223519017130363	1.8741724313311507	-0.46380388314310567	-0.21076116369662012	1.7554652841085938	-0.37446245024359615	-0.21726670423821437	1.5948767328452063	-0.5504232376081666	-0.22229319359799804	1.557864243572134	-0.5860440625292525	-0.197950036677793	1.5906645051957333	-0.5224996444062668	-0.21842513677310688	1.5776849672395106	-0.5288154641457818	-0.23357355493400675	2.032439463656535	-0.4009751355434517	-0.2423459476548354	2.1008280400756183	-0.4622787553042661	-0.251740901028072	2.0291677281349183	-0.30822961791899944	-0.25566630879983704	1.9425459477284983	-0.2822603940364593	-0.26731792241149155	1.8730187874619402	-0.2936914325827093	-0.2135258971835527	2.035427171980885	-0.4882993475302905	-0.20889112723021575	1.9591121137767773	-0.5159752022622545	-0.2061958960781557	1.889899697324335	-0.5277347457897901
75	2.5	-0.23755683588440335	1.8735457168201572	-0.40194376560703016	-0.24914512262131835	1.8702288521836457	-0.3470980207435139	-0.26545656451491784	1.7168481557015087	-0.4477177870666516													-0.22325757293007314	1.876743866508631	-0.4675126915948215	-0.21050177138955586	1.7570571383655125	-0.36665593678157754	-0.21726670423821437	1.5948767328452063	-0.5504232376081666	-0.22229319359799804	1.557864243572134	-0.5860440625292525	-0.197950036677793	1.5906645051957333	-0.5224996444062668	-0.21842513677310688	1.5776849672395106	-0.5288154641457818	-0.23357720792667128	2.0324672078338697	-0.4010353341800423	-0.24052772380177778	2.100900792974584	-0.46432800493139964	-0.2527233087495559	2.0303410754446993	-0.31136772486763203	-0.25574383584882227	1.9425444876786904	-0.28206638510001003	-0.26920359920989584	1.871929778637401	-0.29126200502380184	-0.2135334366160572	2.0354893511945726	-0.48833046583700895	-0.20930011464161508	1.9608390258880193	-0.517663746937157	-0.2066326895230196	1.8923012438359494	-0.5293945604599994
